<?xml version="1.0" encoding="utf-8"?>
<!-- Generator: Adobe Illustrator 25.0.0, SVG Export Plug-In . SVG Version: 6.00 Build 0)  -->
<!DOCTYPE svg PUBLIC "-//W3C//DTD SVG 1.1//EN" "http://www.w3.org/Graphics/SVG/1.1/DTD/svg11.dtd" [
	<!ENTITY ns_extend "http://ns.adobe.com/Extensibility/1.0/">
	<!ENTITY ns_ai "http://ns.adobe.com/AdobeIllustrator/10.0/">
	<!ENTITY ns_graphs "http://ns.adobe.com/Graphs/1.0/">
	<!ENTITY ns_vars "http://ns.adobe.com/Variables/1.0/">
	<!ENTITY ns_imrep "http://ns.adobe.com/ImageReplacement/1.0/">
	<!ENTITY ns_sfw "http://ns.adobe.com/SaveForWeb/1.0/">
	<!ENTITY ns_custom "http://ns.adobe.com/GenericCustomNamespace/1.0/">
	<!ENTITY ns_adobe_xpath "http://ns.adobe.com/XPath/1.0/">
]>
<svg version="1.1" id="Layer_1" xmlns:x="&ns_extend;" xmlns:i="&ns_ai;" xmlns:graph="&ns_graphs;"
	 xmlns="http://www.w3.org/2000/svg" xmlns:xlink="http://www.w3.org/1999/xlink" x="0px" y="0px" viewBox="0 0 2048 2048"
	 style="enable-background:new 0 0 2048 2048;" xml:space="preserve">
<style type="text/css">
	.Graphic_x0020_Style{fill:url(#SVGID_1_);}
	.st0{fill:none;}
	.st1{fill:#7E02AB;}
	.st2{fill:url(#SVGID_2_);}
	.st3{fill:url(#SVGID_3_);}
	.st4{fill:url(#SVGID_4_);}
</style>
<metadata>
	<sfw  xmlns="&ns_sfw;">
		<slices></slices>
		<sliceSourceBounds  bottomLeftOrigin="true" height="2048" width="2048" x="0" y="0"></sliceSourceBounds>
	</sfw>
</metadata>
<linearGradient id="SVGID_1_" gradientUnits="userSpaceOnUse" x1="0" y1="2048" x2="6.123234e-17" y2="2049">
	<stop  offset="0" style="stop-color:#B460FF"/>
	<stop  offset="1" style="stop-color:#C022FF"/>
</linearGradient>
<rect width="2048" height="2048"/>
<g>
	<path class="st0" d="M285.794,919.971c-2.112,22.861-3.203,46.017-3.203,69.429c0,410.343,331.573,743.228,741.409,745.384V278.591
		C647.625,278.591,336.403,557.539,285.794,919.971z"/>
	<path class="st1" d="M1024,151.658v-34.576c-451.63,2.029-822.187,347.249-864.332,788.314
		C217.535,479.721,582.449,151.658,1024,151.658z"/>
	<path class="st1" d="M282.591,989.4c0-23.412,1.091-46.568,3.203-69.429c-4.747,33.996-7.203,68.725-7.203,104.029
		c0,411.678,333.731,745.409,745.409,745.409v-34.625C614.164,1732.628,282.591,1399.743,282.591,989.4z"/>
	<linearGradient id="SVGID_2_" gradientUnits="userSpaceOnUse" x1="587.8292" y1="151.6584" x2="587.8292" y2="1931.6416">
		<stop  offset="0" style="stop-color:#A257E6"/>
		<stop  offset="1" style="stop-color:#AC1FE6"/>
	</linearGradient>
	<path class="st2" d="M278.591,1024c0-35.303,2.456-70.033,7.203-104.029c50.61-362.433,361.832-641.38,738.206-641.38V151.658
		c-441.551,0-806.465,328.062-864.332,753.738c-5.272,38.784-8.01,78.374-8.01,118.604c0,481.781,390.561,872.342,872.342,872.342
		v-126.932C612.322,1769.409,278.591,1435.678,278.591,1024z"/>
</g>
<g>
	<path class="st1" d="M1875.943,1516.921c-5.71-19.063-41.112-133.79-100.672-243.686
		c-78.447-144.859-146.001-248.518-258.62-353.582c-36.281-33.821-70.365-64.04-106.206-91.185l0,0c0,0-0.264-0.176-0.791-0.527
		c-0.703-0.439-1.318-1.054-2.021-1.493c-13.353-10.366-69.487-57.627-49.458-109.808c6.764-17.481,22.84-31.976,41.991-43.748
		l103.307-0.791V633.8l0,0l0,0c0,0-60.526-20.556-166.557-13.792c-99.442,6.413-188.606,64.479-205.385,72.649
		c-53.499-15.373-114.64-28.814-186.059-41.024c-246.936-41.903-456.011,24.861-560.9,97.773
		c-137.392,95.226-133.527,184.302-144.859,228.664c-7.028,27.584-69.487,78.447-68.696,114.376v37.686l12.913,13.265l48.667-16.603
		l5.798-20.293c19.941-7.115,41.903-17.042,61.844-25.3c49.721-20.468,53.499-31.537,189.221-51.829
		c62.459-9.312,128.168-11.947,177.186-12.386c19.063,40.234,66.324,122.897,148.373,162.428
		c53.323,25.827,113.058,38.916,160.671,45.768l-6.237,31.449l94.698,14.055v-38.301h-0.088l0,0c0,0-79.501-33.03-128.432-81.873
		c-33.294-33.294-41.288-83.806-42.957-112.707h0.264c80.116,15.285,150.13,26.178,317.477,90.306
		c31.01,11.859,59.736,24.861,86.09,37.95l-4.919,2.811l75.46,60.79l90.13,74.582v-38.301l-0.264-0.264
		c-1.318-1.581-104.01-128.783-276.365-213.906c-142.487-70.277-259.498-105.064-421.663-112.883
		c-177.362-8.433-307.902,14.319-307.902,14.319s3.602-78.71,137.48-141.433c116.309-54.553,299.381-63.777,509.422-10.19
		c296.657,75.636,398.032,204.682,525.673,337.858c80.994,84.508,155.4,203.452,202.398,285.677l-7.994-3.514l24.333,62.81
		l34.787,74.318v-38.565L1875.943,1516.921L1875.943,1516.921z"/>
	
		<linearGradient id="SVGID_3_" gradientUnits="userSpaceOnUse" x1="1024.048" y1="-2247.3198" x2="1024.048" y2="-1346.1425" gradientTransform="matrix(1 0 0 1 0 2904)">
		<stop  offset="0" style="stop-color:#B460FF"/>
		<stop  offset="1" style="stop-color:#C022FF"/>
	</linearGradient>
	<path class="st3" d="M1775.368,1311.448c-78.447-144.859-146.001-248.518-258.62-353.582
		c-36.281-33.821-70.365-64.04-106.206-91.185l0,0c0,0-0.264-0.176-0.791-0.527c-0.527-0.439-1.318-1.054-1.932-1.493
		c-13.265-10.278-69.487-57.539-49.458-109.808c21.874-57.276,145.474-83.015,145.474-83.015s-60.526-20.556-166.557-13.792
		c-99.442,6.413-188.606,64.479-205.385,72.649c-53.499-15.373-114.64-28.814-186.059-41.024
		c-247.112-41.903-456.187,24.861-561.076,97.685c-137.48,95.401-133.702,184.302-145.034,228.928
		c-8.17,31.976-91.097,95.665-62.898,130.276c17.569,21.522,76.163-7.643,123.336-27.232
		c49.721-20.468,53.499-31.537,189.221-51.829c62.459-9.312,128.168-11.947,177.186-12.386
		c19.063,40.234,66.324,122.897,148.373,162.428c110.687,53.499,249.045,52.884,249.045,52.884s-79.501-33.03-128.432-81.873
		c-33.294-33.294-41.288-83.806-42.957-112.707h0.263c80.116,15.285,150.13,26.178,317.477,90.306
		c146.44,56.046,246.497,137.655,246.497,137.655s-102.868-128.256-276.453-213.906
		c-142.487-70.277-259.499-105.064-421.663-112.883c-177.011-8.609-307.638,14.143-307.638,14.143s3.602-78.71,137.48-141.433
		c116.309-54.553,299.381-63.776,509.422-10.19c296.657,75.636,398.032,204.682,525.673,337.857
		c135.898,141.784,253.437,380.463,253.437,380.463S1840.638,1431.886,1775.368,1311.448L1775.368,1311.448z"/>
</g>
<g>
	<path class="st0" d="M1028,1734.809c376.375,0,687.597-278.948,738.206-641.38c2.112-22.861,3.203-46.017,3.203-69.429
		c0-411.678-333.731-745.409-745.409-745.409v1456.193C1025.334,1734.791,1026.665,1734.809,1028,1734.809z"/>
	<path class="st1" d="M1028,117.058c-1.335,0-2.666,0.018-4,0.024v34.576c481.781,0,872.342,390.561,872.342,872.342
		c0,28.339-1.368,56.357-4.01,84.004c5.272-38.784,8.01-78.374,8.01-118.604C1900.342,507.619,1509.781,117.058,1028,117.058z"/>
	<path class="st1" d="M1028,1734.809c-1.335,0-2.666-0.018-4-0.025v34.625c388.266,0,707.187-296.856,742.206-675.98
		C1715.597,1455.861,1404.375,1734.809,1028,1734.809z"/>
	<linearGradient id="SVGID_4_" gradientUnits="userSpaceOnUse" x1="1460.1708" y1="151.6584" x2="1460.1708" y2="1931.6416">
		<stop  offset="0" style="stop-color:#A257E6"/>
		<stop  offset="1" style="stop-color:#AC1FE6"/>
	</linearGradient>
	<path class="st4" d="M1024,151.658v126.932c411.678,0,745.409,333.731,745.409,745.409c0,23.412-1.091,46.568-3.203,69.429
		c-35.019,379.125-353.94,675.98-742.206,675.98v126.932c453.442,0,826.062-345.97,868.332-788.338
		c2.642-27.647,4.01-55.665,4.01-84.004C1896.342,542.219,1505.781,151.658,1024,151.658z"/>
</g>
</svg>
