<?xml version="1.0" encoding="utf-8"?>
<!-- Generator: Adobe Illustrator 25.0.0, SVG Export Plug-In . SVG Version: 6.00 Build 0)  -->
<svg version="1.1" id="Layer_1" xmlns="http://www.w3.org/2000/svg" xmlns:xlink="http://www.w3.org/1999/xlink" x="0px" y="0px"
	 viewBox="0 0 3640 2048" style="enable-background:new 0 0 3640 2048;" xml:space="preserve">
<style type="text/css">
	.st0{clip-path:url(#SVGID_2_);}
	.st1{clip-path:url(#SVGID_4_);}
	.st2{fill:#7E02AB;}
	.st3{fill:url(#SVGID_5_);}
	.st4{fill:url(#SVGID_6_);}
	.st5{clip-path:url(#SVGID_8_);}
	.st6{fill:url(#SVGID_9_);}
	.st7{fill:url(#SVGID_10_);}
	.st8{fill:#FFFFFF;}
	.st9{font-family:'BrandingSF-CondSemiBold';}
	.st10{font-size:410px;}
</style>
<g id="Background">
	<rect width="3640" height="2048"/>
</g>
<g>
	<g>
		<g>
			<g>
				<defs>
					<path id="SVGID_1_" d="M2373,729.1c0,302-244.9,546.9-546.9,546.9h-12.6c-302.2,0-547-244.9-547-547l0,0
						c0-302.2,244.9-547,547-547h19C2131,182,2373,424,2373,722.5V729.1z"/>
				</defs>
				<clipPath id="SVGID_2_">
					<use xlink:href="#SVGID_1_"  style="overflow:visible;"/>
				</clipPath>
				<g class="st0">
					<g>
						<g>
							<g>
								<g>
									<g>
										<defs>
											<rect id="SVGID_3_" x="1267" y="182" width="553" height="1094"/>
										</defs>
										<clipPath id="SVGID_4_">
											<use xlink:href="#SVGID_3_"  style="overflow:visible;"/>
										</clipPath>
										<g class="st1">
											<path class="st2" d="M1271,160v1094h1106V160H1271L1271,160z M1824.7,1174.8c-261,0-472.7-209.3-472.7-467.3
												s211.6-467.3,472.7-467.3s472.7,209.3,472.7,467.3S2085.7,1174.8,1824.7,1174.8z"/>
											
												<linearGradient id="SVGID_5_" gradientUnits="userSpaceOnUse" x1="1820" y1="-2722" x2="1820" y2="-1628" gradientTransform="matrix(1 0 0 1 0 2904)">
												<stop  offset="0" style="stop-color:#B460FF"/>
												<stop  offset="1" style="stop-color:#C022FF"/>
											</linearGradient>
											<path class="st3" d="M1267,182v1094h1106V182H1267z M1820.2,1196.3c-261,0-472.7-209.3-472.7-467.3
												s211.6-467.3,472.7-467.3S2292.9,471,2292.9,729S2081.2,1196.3,1820.2,1196.3z"/>
										</g>
									</g>
								</g>
							</g>
						</g>
					</g>
					<path class="st2" d="M2342.4,1029.8c-3.5-11.6-25.3-81.5-61.8-148.4c-48.2-88.2-89.7-151.3-158.9-215.3
						c-22.3-20.6-43.2-39-65.2-55.5l0,0c0,0-0.2-0.1-0.5-0.3c-0.4-0.3-0.8-0.6-1.2-0.9c-8.2-6.3-42.7-35-30.4-66.8
						c4.2-10.6,14-19.4,25.8-26.6l62.8-0.5v-23.3l0,0l0,0c0,0-37.2-12.5-102.6-8.4c-61.2,3.9-116.1,39.2-126.4,44.2
						c-32.9-9.3-70.5-17.5-114.5-24.9c-152-25.4-280.6,15.2-345.1,59.4c-84.6,57.9-82.3,112-89.2,139c-4.4,16.8-42.7,47.7-42.3,69.5
						v23.1l7.9,8.1l30-10.1l3.6-12.4c12.3-4.4,25.8-10.4,38.1-15.4c30.6-12.5,32.9-19.2,116.5-31.4c38.4-5.7,78.9-7.2,109.1-7.5
						c11.8,24.4,40.8,74.6,91.3,98.5c32.8,15.7,69.6,23.6,98.9,27.7l-3.8,19.1l58.3,8.5V856h-0.1l0,0c0,0-49-20-79.1-49.6
						c-20.5-20.1-25.4-50.9-26.4-68.4h1.1c49.2,9.3,92.2,15.9,195,55c19.1,7.2,36.8,15.2,52.9,23.1l-3,1.7l46.3,37l55.3,45.5v-23.1
						l-0.2-0.2c-0.8-1-63.8-78.4-169.8-130.3c-87.5-42.8-159.4-64-259-68.8c-109-5.1-189.1,8.7-189.1,8.7s2.2-47.9,84.4-86.1
						c71.4-33.2,183.9-38.9,312.9-6.2c182.2,46.1,244.5,124.6,322.9,205.7c49.7,51.5,95.5,123.9,124.4,173.9l-4.9-2.2l15,38.3
						l21.4,45.3v-23.4L2342.4,1029.8L2342.4,1029.8z"/>
					
						<linearGradient id="SVGID_6_" gradientUnits="userSpaceOnUse" x1="1818.4142" y1="-4332.9258" x2="1818.4142" y2="-3785.1001" gradientTransform="matrix(1 0 0 1 0 4840)">
						<stop  offset="0" style="stop-color:#B460FF"/>
						<stop  offset="1" style="stop-color:#C022FF"/>
					</linearGradient>
					<path class="st4" d="M2280.4,905c-48.3-88.1-89.8-151.1-159.1-215c-22.3-20.6-43.3-38.9-65.3-55.4l0,0c0,0-0.2-0.1-0.5-0.3
						c-0.3-0.3-0.8-0.6-1.2-0.9c-8.2-6.3-42.7-35-30.4-66.7c13.4-34.8,89.5-50.4,89.5-50.4s-37.2-12.5-102.5-8.4
						c-61.2,3.9-116,39.2-126.3,44.2c-32.9-9.3-70.5-17.5-114.4-24.9c-151.9-25.4-280.5,15.2-345,59.4c-84.5,58-82.2,112-89.2,139.2
						c-5.1,19.4-56,58.2-38.7,79.2c10.8,13.1,46.9-4.6,75.9-16.6c30.6-12.5,32.9-19.2,116.4-31.5c38.4-5.7,78.8-7.2,109-7.5
						c11.8,24.5,40.8,74.8,91.2,98.8c68,32.5,153.2,32.1,153.2,32.1s-48.9-20.1-79-49.7c-20.5-20.2-25.4-51-26.4-68.6h0.2
						c49.3,9.3,92.3,15.9,195.2,54.9c90.1,34.1,151.6,83.7,151.6,83.7s-63.3-78-170-130.1c-87.6-42.7-159.6-63.9-259.3-68.7
						c-108.8-5.2-189.2,8.6-189.2,8.6s2.2-47.8,84.5-86c71.5-33.2,184.1-38.8,313.3-6.2c182.4,46,244.8,124.4,323.3,205.4
						c83.5,86.3,155.9,231.3,155.9,231.3S2320.5,978.2,2280.4,905L2280.4,905z"/>
					<g>
						<g>
							<g>
								<g>
									<g>
										<defs>
											<rect id="SVGID_7_" x="1820" y="182" width="553" height="1094"/>
										</defs>
										<clipPath id="SVGID_8_">
											<use xlink:href="#SVGID_7_"  style="overflow:visible;"/>
										</clipPath>
										<g class="st5">
											<path class="st2" d="M1271,160v1094h1106V160H1271L1271,160z M1824.7,1174.8c-261,0-472.7-209.3-472.7-467.3
												s211.6-467.3,472.7-467.3s472.7,209.3,472.7,467.3S2085.7,1174.8,1824.7,1174.8z"/>
											
												<linearGradient id="SVGID_9_" gradientUnits="userSpaceOnUse" x1="1820" y1="-2722" x2="1820" y2="-1628" gradientTransform="matrix(1 0 0 1 0 2904)">
												<stop  offset="0" style="stop-color:#B460FF"/>
												<stop  offset="1" style="stop-color:#C022FF"/>
											</linearGradient>
											<path class="st6" d="M1267,182v1094h1106V182H1267z M1820.2,1196.3c-261,0-472.7-209.3-472.7-467.3
												s211.6-467.3,472.7-467.3S2292.9,471,2292.9,729S2081.2,1196.3,1820.2,1196.3z"/>
										</g>
									</g>
								</g>
							</g>
						</g>
					</g>
				</g>
			</g>
		</g>
	</g>
</g>
<g>
	
		<linearGradient id="SVGID_10_" gradientUnits="userSpaceOnUse" x1="1180.7501" y1="738.25" x2="2459.25" y2="2016.75" gradientTransform="matrix(1 0 0 -1 0 3016)">
		<stop  offset="0" style="stop-color:#E64A0C"/>
		<stop  offset="0.4" style="stop-color:#EC3877"/>
		<stop  offset="1" style="stop-color:#E91E63"/>
	</linearGradient>
	<polygon class="st7" points="760,1420 760,1857 1272,1857 1272,1827 790,1827 790,1450 1948,1450 1948,1827 1392,1827 1392,1857 
		2880,1857 2880,1420 	"/>
	<text transform="matrix(1.068 0 0 1 816.8716 1775.6582)" class="st8 st9 st10">Dolphin MMJR</text>
</g>
</svg>
