<?xml version="1.0" encoding="utf-8"?>
<!-- Generator: Adobe Illustrator 25.0.0, SVG Export Plug-In . SVG Version: 6.00 Build 0)  -->
<svg version="1.1" id="Layer_1" xmlns="http://www.w3.org/2000/svg" xmlns:xlink="http://www.w3.org/1999/xlink" x="0px" y="0px"
	 viewBox="0 0 3640 2048" style="enable-background:new 0 0 3640 2048;" xml:space="preserve">
<style type="text/css">
	.st0{clip-path:url(#SVGID_2_);}
	.st1{clip-path:url(#SVGID_4_);}
	.st2{fill:#7E02AB;}
	.st3{fill:url(#SVGID_5_);}
	.st4{fill:url(#SVGID_6_);}
	.st5{clip-path:url(#SVGID_8_);}
	.st6{fill:url(#SVGID_9_);}
	.st7{fill:url(#SVGID_10_);}
	.st8{fill:#FFFFFF;}
	.st9{font-family:'BrandingSF-CondSemiBold';}
	.st10{font-size:430px;}
</style>
<g id="Background">
	<rect width="3640" height="2048"/>
</g>
<g>
	<g>
		<g>
			<g>
				<defs>
					<path id="SVGID_1_" d="M2373,730.1c0,302-244.9,546.9-546.9,546.9h-12.6c-302.2,0-547-244.9-547-547l0,0
						c0-302.2,244.9-547,547-547h19C2131,183,2373,425,2373,723.5V730.1z"/>
				</defs>
				<clipPath id="SVGID_2_">
					<use xlink:href="#SVGID_1_"  style="overflow:visible;"/>
				</clipPath>
				<g class="st0">
					<g>
						<g>
							<g>
								<g>
									<g>
										<g>
											<defs>
												<rect id="SVGID_3_" x="1267" y="183" width="553" height="1094"/>
											</defs>
											<clipPath id="SVGID_4_">
												<use xlink:href="#SVGID_3_"  style="overflow:visible;"/>
											</clipPath>
											<g class="st1">
												<path class="st2" d="M1271,161v1094h1106V161H1271L1271,161z M1824.4,1175.3c-261,0-472.7-209.3-472.7-467.3
													s211.6-467.3,472.7-467.3S2297.2,450,2297.2,708S2085.4,1175.3,1824.4,1175.3z"/>
												
													<linearGradient id="SVGID_5_" gradientUnits="userSpaceOnUse" x1="1820" y1="4769" x2="1820" y2="3675" gradientTransform="matrix(1 0 0 -1 0 4952)">
													<stop  offset="0" style="stop-color:#B460FF"/>
													<stop  offset="1" style="stop-color:#C022FF"/>
												</linearGradient>
												<path class="st3" d="M1267,183v1094h1106V183H1267z M1819.9,1196.9c-261,0-472.7-209.3-472.7-467.3
													s211.6-467.3,472.7-467.3s472.7,209.3,472.7,467.3S2080.9,1196.9,1819.9,1196.9z"/>
											</g>
										</g>
									</g>
								</g>
							</g>
						</g>
					</g>
					<path class="st2" d="M2342.1,1030.5c-3.5-11.6-25.3-81.5-61.8-148.2C2232,794,2190.6,731,2121.4,667
						c-22.3-20.6-43.2-38.9-65.2-55.5l0,0c0,0-0.2-0.1-0.5-0.3c-0.4-0.3-0.8-0.6-1.2-0.9c-8.2-6.3-42.7-35-30.4-66.8
						c4.2-10.6,14-19.4,25.8-26.6l63.1-0.5v-23.3l0,0l0,0c0,0-37.2-12.5-102.4-8.4c-61.2,3.9-115.9,39.2-126.2,44.2
						c-32.9-9.3-70.5-17.5-114.3-24.9c-151.8-25.4-280.2,15.2-344.7,59.4c-84.4,57.9-82.1,112-89,139c-4.4,16.8-42.7,47.7-42.3,69.5
						v23l7.9,8.1l30-10.1l3.6-12.4c12.3-4.4,25.8-10.4,38.1-15.4c30.6-12.5,32.9-19.2,116.3-31.4c38.4-5.7,78.7-7.2,108.9-7.5
						c11.8,24.4,40.8,74.6,91.1,98.5c32.8,15.7,69.4,23.6,98.7,27.7l-3.8,19.1l58.2,8.5V857h-0.1l0,0c0,0-48.9-20-78.9-49.6
						c-20.5-20.1-25.4-50.9-26.4-68.4h0.9c49.2,9.3,92.2,15.9,195,54.9c19.1,7.2,36.8,15.2,52.9,23.1l-3,1.7l46.3,36.9l55.3,45.4
						v-23.3l-0.2-0.2c-0.8-1-63.8-78.4-169.8-130.1c-87.5-42.7-159.4-64-259-68.8c-109-5.1-189.1,8.7-189.1,8.7s2.2-47.8,84.4-86.1
						c71.4-33.2,183.9-38.8,312.9-6.2c182.2,46,244.5,124.4,322.9,205.5c49.7,51.4,95.5,123.7,124.4,173.8l-4.9-2.2l15,38.2
						l21.4,45.2v-23.4L2342.1,1030.5L2342.1,1030.5z"/>
					
						<linearGradient id="SVGID_6_" gradientUnits="userSpaceOnUse" x1="1818.1144" y1="6380.9258" x2="1818.1144" y2="5833.1001" gradientTransform="matrix(1 0 0 -1 0 6888)">
						<stop  offset="0" style="stop-color:#B460FF"/>
						<stop  offset="1" style="stop-color:#C022FF"/>
					</linearGradient>
					<path class="st4" d="M2280.1,905c-48.3-88.1-89.8-151.1-159.1-215c-22.3-20.6-43.3-38.9-65.3-55.4l0,0c0,0-0.2-0.1-0.5-0.3
						c-0.3-0.3-0.8-0.6-1.2-0.9c-8.2-6.3-42.7-35-30.4-66.7c13.4-34.8,89.5-50.4,89.5-50.4s-37.2-12.5-102.5-8.4
						c-61.2,3.9-116,39.2-126.3,44.2c-32.9-9.3-70.5-17.5-114.4-24.9c-151.9-25.4-280.5,15.2-345,59.4c-84.5,58-82.2,112-89.2,139.2
						c-5.1,19.4-56,58.2-38.7,79.2c10.8,13.1,46.9-4.6,75.9-16.6c30.6-12.5,32.9-19.2,116.4-31.5c38.4-5.7,78.8-7.2,109-7.5
						c11.8,24.5,40.8,74.8,91.2,98.8c68,32.5,153.2,32.1,153.2,32.1s-48.9-20.1-79-49.7c-20.5-20.2-25.4-51-26.4-68.6h0.2
						c49.3,9.3,92.3,15.9,195.2,54.9c90.1,34.1,151.6,83.7,151.6,83.7s-63.3-78-170-130.1c-87.6-42.7-159.6-63.9-259.3-68.7
						c-108.8-5.2-189.2,8.6-189.2,8.6s2.2-47.8,84.5-86c71.5-33.2,184.1-38.8,313.3-6.2c182.4,46,244.8,124.4,323.3,205.4
						c83.5,86.3,155.9,231.3,155.9,231.3S2320.2,978.1,2280.1,905L2280.1,905z"/>
					<g>
						<g>
							<g>
								<g>
									<g>
										<g>
											<defs>
												<rect id="SVGID_7_" x="1820" y="183" width="553" height="1094"/>
											</defs>
											<clipPath id="SVGID_8_">
												<use xlink:href="#SVGID_7_"  style="overflow:visible;"/>
											</clipPath>
											<g class="st5">
												<path class="st2" d="M1271,161v1094h1106V161H1271L1271,161z M1824.4,1175.3c-261,0-472.7-209.3-472.7-467.3
													s211.6-467.3,472.7-467.3S2297.2,450,2297.2,708S2085.4,1175.3,1824.4,1175.3z"/>
												
													<linearGradient id="SVGID_9_" gradientUnits="userSpaceOnUse" x1="1820" y1="4769" x2="1820" y2="3675" gradientTransform="matrix(1 0 0 -1 0 4952)">
													<stop  offset="0" style="stop-color:#B460FF"/>
													<stop  offset="1" style="stop-color:#C022FF"/>
												</linearGradient>
												<path class="st6" d="M1267,183v1094h1106V183H1267z M1819.9,1196.9c-261,0-472.7-209.3-472.7-467.3
													s211.6-467.3,472.7-467.3s472.7,209.3,472.7,467.3S2080.9,1196.9,1819.9,1196.9z"/>
											</g>
										</g>
									</g>
								</g>
							</g>
						</g>
					</g>
				</g>
			</g>
		</g>
	</g>
</g>
<g>
	
		<linearGradient id="SVGID_10_" gradientUnits="userSpaceOnUse" x1="2073.5" y1="33.5" x2="2753.5" y2="-646.5" gradientTransform="matrix(1 0 0 1 0 1936)">
		<stop  offset="0" style="stop-color:#E64A0C"/>
		<stop  offset="0.4" style="stop-color:#EC3877"/>
		<stop  offset="1" style="stop-color:#E91E63"/>
	</linearGradient>
	<path class="st7" d="M2895,1828h-963v-397h963V1828z"/>
	<text transform="matrix(1.068 0 0 1 745 1770.7285)" class="st8 st9 st10">Dolphin MMJR</text>
</g>
</svg>
