<?xml version="1.0" encoding="utf-8"?>
<!-- Generator: Adobe Illustrator 25.0.0, SVG Export Plug-In . SVG Version: 6.00 Build 0)  -->
<svg version="1.1" id="Layer_1" xmlns="http://www.w3.org/2000/svg" xmlns:xlink="http://www.w3.org/1999/xlink" x="0px" y="0px"
	 viewBox="0 0 320 180" style="enable-background:new 0 0 320 180;" xml:space="preserve">
<style type="text/css">
	.st0{fill:url(#SVGID_1_);}
	.st1{fill:#FFFFFF;}
	.st2{font-family:'BrandingSF-CondSemiBold';}
	.st3{font-size:36.044px;}
	.st4{fill:none;}
	.st5{fill:#7E02AB;}
	.st6{fill:url(#SVGID_2_);}
	.st7{fill:url(#SVGID_3_);}
	.st8{fill:url(#SVGID_4_);}
</style>
<g id="Background">
	<rect width="320" height="180"/>
</g>
<g>
	<rect x="66.8" y="124.8" width="186.4" height="38.4"/>
	
		<linearGradient id="SVGID_1_" gradientUnits="userSpaceOnUse" x1="128.3857" y1="1917.2203" x2="191.6143" y2="2026.7357" gradientTransform="matrix(1 0 0 -1 0 2116)">
		<stop  offset="0" style="stop-color:#B460FF"/>
		<stop  offset="1" style="stop-color:#C022FF"/>
	</linearGradient>
	<polygon class="st0" points="66.8,124.8 66.8,163.2 111.8,163.2 111.8,160.6 69.5,160.6 69.5,127.5 171.3,127.5 171.3,160.6 
		122.4,160.6 122.4,163.2 253.2,163.2 253.2,124.8 	"/>
	<text transform="matrix(1.068 0 0 1 71.813 156.08)" class="st1 st2 st3">Dolphin MMJR</text>
</g>
<g>
	<circle cx="160" cy="62.5" r="39.7"/>
	<g>
		<g>
			<path class="st4" d="M124,57.7c-0.1,1.1-0.2,2.2-0.2,3.4c0,19.9,16.1,36.1,36,36.2V26.5C141.6,26.5,126.5,40,124,57.7z"/>
			<path class="st5" d="M159.9,20.3v-1.7c-22,0.1-40,16.9-42,38.3C120.7,36.3,138.4,20.3,159.9,20.3z"/>
			<path class="st5" d="M123.9,61c0-1.1,0.1-2.3,0.2-3.4c-0.2,1.7-0.4,3.3-0.4,5.1c0,20,16.2,36.2,36.2,36.2v-1.7
				C140,97.2,123.9,81,123.9,61z"/>
			
				<linearGradient id="SVGID_2_" gradientUnits="userSpaceOnUse" x1="138.7004" y1="-947.6879" x2="138.7004" y2="-861.168" gradientTransform="matrix(1 0 0 1 0 968)">
				<stop  offset="0" style="stop-color:#A257E6"/>
				<stop  offset="1" style="stop-color:#AC1FE6"/>
			</linearGradient>
			<path class="st6" d="M123.7,62.7c0-1.7,0.1-3.4,0.4-5.1c2.5-17.6,17.6-31.2,35.9-31.2v-6.2c-21.5,0-39.2,15.9-42,36.6
				c-0.3,1.9-0.4,3.8-0.4,5.8c0,23.4,19,42.4,42.4,42.4v-6.2C139.9,99,123.7,82.7,123.7,62.7z"/>
		</g>
		<g>
			<path class="st5" d="M201.3,86.7c-0.3-0.9-2-6.5-4.9-11.8c-3.8-7-7.1-12.1-12.6-17.2c-1.8-1.6-3.4-3.1-5.2-4.4l0,0c0,0,0,0,0,0
				c0,0-0.1-0.1-0.1-0.1c-0.7-0.5-3.4-2.8-2.4-5.3c0.3-0.8,1.1-1.6,2-2.1l5,0v-1.9l0,0l0,0c0,0-2.9-1-8.1-0.7
				c-4.8,0.3-9.2,3.1-10,3.5c-2.6-0.7-5.6-1.4-9-2c-12-2-22.2,1.2-27.3,4.7c-6.7,4.6-6.5,9-7,11.1c-0.3,1.3-3.4,3.8-3.3,5.6v1.8
				l0.6,0.6l2.4-0.8l0.3-1c1-0.3,2-0.8,3-1.2c2.4-1,2.6-1.5,9.2-2.5c3-0.5,6.2-0.6,8.6-0.6c0.9,2,3.2,6,7.2,7.9
				c2.6,1.3,5.5,1.9,7.8,2.2l-0.3,1.5l4.6,0.7v-1.9h0l0,0c0,0-3.9-1.6-6.2-4c-1.6-1.6-2-4.1-2.1-5.5h0c3.9,0.7,7.3,1.3,15.4,4.4
				c1.5,0.6,2.9,1.2,4.2,1.8l-0.2,0.1l3.7,3l4.4,3.6v-1.9l0,0c-0.1-0.1-5.1-6.3-13.4-10.4c-6.9-3.4-12.6-5.1-20.5-5.5
				c-8.6-0.4-15,0.7-15,0.7s0.2-3.8,6.7-6.9c5.7-2.6,14.6-3.1,24.8-0.5c14.4,3.7,19.3,9.9,25.6,16.4c3.9,4.1,7.6,9.9,9.8,13.9
				l-0.4-0.2l1.2,3.1l1.7,3.6v-1.9L201.3,86.7L201.3,86.7z"/>
			
				<linearGradient id="SVGID_3_" gradientUnits="userSpaceOnUse" x1="159.8859" y1="-3827.1299" x2="159.8859" y2="-3783.3325" gradientTransform="matrix(1 0 0 1 0 3872)">
				<stop  offset="0" style="stop-color:#B460FF"/>
				<stop  offset="1" style="stop-color:#C022FF"/>
			</linearGradient>
			<path class="st7" d="M196.4,76.7c-3.8-7-7.1-12.1-12.6-17.2c-1.8-1.6-3.4-3.1-5.2-4.4l0,0c0,0,0,0,0,0c0,0-0.1-0.1-0.1-0.1
				c-0.6-0.5-3.4-2.8-2.4-5.3c1.1-2.8,7.1-4,7.1-4s-2.9-1-8.1-0.7c-4.8,0.3-9.2,3.1-10,3.5c-2.6-0.7-5.6-1.4-9-2
				c-12-2-22.2,1.2-27.3,4.7c-6.7,4.6-6.5,9-7.1,11.1c-0.4,1.6-4.4,4.6-3.1,6.3c0.9,1,3.7-0.4,6-1.3c2.4-1,2.6-1.5,9.2-2.5
				c3-0.5,6.2-0.6,8.6-0.6c0.9,2,3.2,6,7.2,7.9c5.4,2.6,12.1,2.6,12.1,2.6s-3.9-1.6-6.2-4c-1.6-1.6-2-4.1-2.1-5.5h0
				c3.9,0.7,7.3,1.3,15.4,4.4c7.1,2.7,12,6.7,12,6.7s-5-6.2-13.4-10.4c-6.9-3.4-12.6-5.1-20.5-5.5c-8.6-0.4-15,0.7-15,0.7
				s0.2-3.8,6.7-6.9c5.7-2.6,14.6-3.1,24.8-0.5c14.4,3.7,19.3,9.9,25.6,16.4c6.6,6.9,12.3,18.5,12.3,18.5S199.6,82.5,196.4,76.7
				L196.4,76.7z"/>
		</g>
		<g>
			<path class="st4" d="M160.1,97.3c18.3,0,33.4-13.6,35.9-31.2c0.1-1.1,0.2-2.2,0.2-3.4c0-20-16.2-36.2-36.2-36.2v70.8
				C160,97.3,160,97.3,160.1,97.3z"/>
			<path class="st5" d="M160.1,18.6c-0.1,0-0.1,0-0.2,0v1.7c23.4,0,42.4,19,42.4,42.4c0,1.4-0.1,2.7-0.2,4.1
				c0.3-1.9,0.4-3.8,0.4-5.8C202.5,37.6,183.5,18.6,160.1,18.6z"/>
			<path class="st5" d="M160.1,97.3c-0.1,0-0.1,0-0.2,0V99c18.9,0,34.4-14.4,36.1-32.9C193.5,83.7,178.4,97.3,160.1,97.3z"/>
			
				<linearGradient id="SVGID_4_" gradientUnits="userSpaceOnUse" x1="181.0982" y1="-947.6879" x2="181.0982" y2="-861.168" gradientTransform="matrix(1 0 0 1 0 968)">
				<stop  offset="0" style="stop-color:#A257E6"/>
				<stop  offset="1" style="stop-color:#AC1FE6"/>
			</linearGradient>
			<path class="st8" d="M159.9,20.3v6.2c20,0,36.2,16.2,36.2,36.2c0,1.1-0.1,2.3-0.2,3.4c-1.7,18.4-17.2,32.9-36.1,32.9v6.2
				c22,0,40.2-16.8,42.2-38.3c0.1-1.3,0.2-2.7,0.2-4.1C202.3,39.3,183.3,20.3,159.9,20.3z"/>
		</g>
	</g>
</g>
</svg>
