<?xml version="1.0" encoding="utf-8"?>
<!-- Generator: Adobe Illustrator 25.0.0, SVG Export Plug-In . SVG Version: 6.00 Build 0)  -->
<svg version="1.1" id="Layer_1" xmlns="http://www.w3.org/2000/svg" xmlns:xlink="http://www.w3.org/1999/xlink" x="0px" y="0px"
	 viewBox="0 0 2048 2048" style="enable-background:new 0 0 2048 2048;" xml:space="preserve">
<style type="text/css">
	.st0{clip-path:url(#SVGID_2_);}
	.st1{fill:#7E02AB;}
	.st2{fill:url(#SVGID_3_);}
	.st3{fill:url(#SVGID_4_);}
	.st4{clip-path:url(#SVGID_6_);}
	.st5{fill:url(#SVGID_7_);}
</style>
<rect width="2048" height="2048"/>
<g>
	<defs>
		<rect id="SVGID_1_" width="1024" height="2048"/>
	</defs>
	<clipPath id="SVGID_2_">
		<use xlink:href="#SVGID_1_"  style="overflow:visible;"/>
	</clipPath>
	<g class="st0">
		<path class="st1" d="M8.4-40.4v2048h2048v-2048L8.4-40.4L8.4-40.4z M1032.4,1858.6c-483.2,0-875-391.8-875-875s391.8-875,875-875
			s875,391.8,875,875S1515.6,1858.6,1032.4,1858.6z"/>
		
			<linearGradient id="SVGID_3_" gradientUnits="userSpaceOnUse" x1="1024" y1="2048" x2="1024" y2="0" gradientTransform="matrix(1 0 0 -1 0 2048)">
			<stop  offset="0" style="stop-color:#B460FF"/>
			<stop  offset="1" style="stop-color:#C022FF"/>
		</linearGradient>
		<path class="st2" d="M0,0v2048h2048V0H0z M1024,1899c-483.2,0-875-391.8-875-875s391.8-875,875-875s875,391.8,875,875
			S1507.2,1899,1024,1899z"/>
	</g>
</g>
<path class="st1" d="M1990.5,1586.7c-6.5-21.7-46.8-152.3-114.6-277.4c-89.3-164.9-166.2-282.9-294.4-402.5
	c-41.3-38.5-80.1-72.9-120.9-103.8l0,0c0,0-0.3-0.2-0.9-0.6c-0.8-0.5-1.5-1.2-2.3-1.7c-15.2-11.8-79.1-65.6-56.3-125
	c7.7-19.9,26-36.4,47.8-49.8l117.6-0.9v-43.6l0,0l0,0c0,0-68.9-23.4-189.6-15.7c-113.2,7.3-214.7,73.4-233.8,82.7
	c-60.9-17.5-130.5-32.8-211.8-46.7C650.2,554,412.2,630,292.8,713c-156.4,108.4-152,209.8-164.9,260.3c-8,31.4-79.1,89.3-78.2,130.2
	v42.9l14.7,15.1l55.4-18.9l6.6-23.1c22.7-8.1,47.7-19.4,70.4-28.8c56.6-23.3,60.9-35.9,215.4-59c71.1-10.6,145.9-13.6,201.7-14.1
	c21.7,45.8,75.5,139.9,168.9,184.9c60.7,29.4,128.7,44.3,182.9,52.1l-7.1,35.8l107.8,16v-43.6h-0.1l0,0c0,0-90.5-37.6-146.2-93.2
	c-37.9-37.9-47-95.4-48.9-128.3h0.3c91.2,17.4,170.9,29.8,361.4,102.8c35.3,13.5,68,28.3,98,43.2l-5.6,3.2l85.9,69.2l102.6,84.9
	V1301l-0.3-0.3c-1.5-1.8-118.4-146.6-314.6-243.5c-162.2-80-295.4-119.6-480-128.5C517,919.1,368.4,945,368.4,945
	s4.1-89.6,156.5-161c132.4-62.1,340.8-72.6,579.9-11.6c337.7,86.1,453.1,233,598.4,384.6c92.2,96.2,176.9,231.6,230.4,325.2l-9.1-4
	l27.7,71.5l39.6,84.6v-43.9L1990.5,1586.7L1990.5,1586.7z"/>
<linearGradient id="SVGID_4_" gradientUnits="userSpaceOnUse" x1="1020.6351" y1="3376.5549" x2="1020.6351" y2="2350.7002" gradientTransform="matrix(1 0 0 -1 0 3984)">
	<stop  offset="0" style="stop-color:#B460FF"/>
	<stop  offset="1" style="stop-color:#C022FF"/>
</linearGradient>
<path class="st3" d="M1875.9,1352.8c-89.3-164.9-166.2-282.9-294.4-402.5c-41.3-38.5-80.1-72.9-120.9-103.8l0,0c0,0-0.3-0.2-0.9-0.6
	c-0.6-0.5-1.5-1.2-2.2-1.7c-15.1-11.7-79.1-65.5-56.3-125c24.9-65.2,165.6-94.5,165.6-94.5s-68.9-23.4-189.6-15.7
	c-113.2,7.3-214.7,73.4-233.8,82.7c-60.9-17.5-130.5-32.8-211.8-46.7c-281.3-47.7-519.3,28.3-638.7,111.2
	C136.4,864.8,140.7,966,127.8,1016.8c-9.3,36.4-103.7,108.9-71.6,148.3c20,24.5,86.7-8.7,140.4-31c56.6-23.3,60.9-35.9,215.4-59
	c71.1-10.6,145.9-13.6,201.7-14.1c21.7,45.8,75.5,139.9,168.9,184.9c126,60.9,283.5,60.2,283.5,60.2s-90.5-37.6-146.2-93.2
	c-37.9-37.9-47-95.4-48.9-128.3h0.3c91.2,17.4,170.9,29.8,361.4,102.8c166.7,63.8,280.6,156.7,280.6,156.7s-117.1-146-314.7-243.5
	c-162.2-80-295.4-119.6-480-128.5c-201.5-9.8-350.2,16.1-350.2,16.1s4.1-89.6,156.5-161c132.4-62.1,340.8-72.6,579.9-11.6
	c337.7,86.1,453.1,233,598.4,384.6c154.7,161.4,288.5,433.1,288.5,433.1S1950.2,1489.9,1875.9,1352.8L1875.9,1352.8z"/>
<g>
	<defs>
		<rect id="SVGID_5_" x="1024" width="1024" height="2048"/>
	</defs>
	<clipPath id="SVGID_6_">
		<use xlink:href="#SVGID_5_"  style="overflow:visible;"/>
	</clipPath>
	<g class="st4">
		<path class="st1" d="M8.4-40.4v2048h2048v-2048L8.4-40.4L8.4-40.4z M1032.4,1858.6c-483.2,0-875-391.8-875-875s391.8-875,875-875
			s875,391.8,875,875S1515.6,1858.6,1032.4,1858.6z"/>
		
			<linearGradient id="SVGID_7_" gradientUnits="userSpaceOnUse" x1="1024" y1="2048" x2="1024" y2="0" gradientTransform="matrix(1 0 0 -1 0 2048)">
			<stop  offset="0" style="stop-color:#B460FF"/>
			<stop  offset="1" style="stop-color:#C022FF"/>
		</linearGradient>
		<path class="st5" d="M0,0v2048h2048V0H0z M1024,1899c-483.2,0-875-391.8-875-875s391.8-875,875-875s875,391.8,875,875
			S1507.2,1899,1024,1899z"/>
	</g>
</g>
</svg>
