<?xml version="1.0" encoding="utf-8"?>
<!-- Generator: Adobe Illustrator 25.0.0, SVG Export Plug-In . SVG Version: 6.00 Build 0)  -->
<svg version="1.1" id="Layer_1" xmlns="http://www.w3.org/2000/svg" xmlns:xlink="http://www.w3.org/1999/xlink" x="0px" y="0px"
	 viewBox="0 0 2048 2048" style="enable-background:new 0 0 2048 2048;" xml:space="preserve">
<style type="text/css">
	.st0{fill:#0F0F0F;}
	.st1{fill:#7E02AB;}
	.st2{fill:url(#SVGID_1_);}
	.st3{fill:url(#SVGID_2_);}
	.st4{fill:url(#SVGID_3_);}
</style>
<rect class="st0" width="2048" height="2048"/>
<g>
	<path class="st1" d="M1020.7,1791.6c0.2,0,0.4,0,0.6,0l0.1-41c-409.9-3.2-741.2-336.5-741.2-747.2c0-34.1,2.3-67.5,6.7-100.4
		c-8.7,45.8-13.4,93-13.4,141.3C273.5,1457.1,608,1791.6,1020.7,1791.6z"/>
	<path class="st1" d="M139.2,879.5c77.5-416.4,442.6-731.7,881.5-731.7c2.2,0,4.3,0,6.5,0l0.1-41C574.3,106.9,199.6,443,139.2,879.5
		z"/>
	
		<linearGradient id="SVGID_1_" gradientUnits="userSpaceOnUse" x1="117.3802" y1="1003.5566" x2="1917.323" y2="1003.5566" gradientTransform="matrix(1 0 0 -1 0 2048)">
		<stop  offset="0" style="stop-color:#B460FF"/>
		<stop  offset="1" style="stop-color:#C022FF"/>
	</linearGradient>
	<path class="st2" d="M139.2,879.5c-9.9,53.4-15.2,108.7-15.2,165c0,495.2,401.5,896.6,896.6,896.6l0.6-149.4c-0.2,0-0.4,0-0.6,0
		c-412.7,0-747.2-334.5-747.2-747.2c0-48.3,4.5-95.5,13.4-141.3c66-345.1,369.5-605.9,733.8-605.9c2,0,3.9,0,6,0l0.6-149.4
		c-2.2,0-4.3,0-6.5,0C581.9,147.8,216.7,463.1,139.2,879.5z"/>
</g>
<path class="st1" d="M1918.6,1550.5c-6-20.1-43.3-141-106.1-256.8c-82.7-152.7-153.9-261.9-272.6-372.7
	c-38.2-35.6-74.2-67.5-111.9-96.1l0,0c0,0-0.3-0.2-0.8-0.6c-0.7-0.5-1.4-1.1-2.1-1.6c-14.1-10.9-73.2-60.7-52.1-115.7
	c7.1-18.4,24.1-33.7,44.3-46.1l108.9-0.8v-40.4l0,0l0,0c0,0-63.8-21.7-175.5-14.5c-104.8,6.8-198.8,68-216.5,76.6
	c-56.4-16.2-120.8-30.4-196.1-43.2c-260.4-44.2-480.8,26.2-591.3,103C202,842,206.1,935.8,194.1,982.6
	c-7.4,29.1-73.2,82.7-72.4,120.5v39.7l13.6,14l51.3-17.5l6.1-21.4c21-7.5,44.2-18,65.2-26.7c52.4-21.6,56.4-33.2,199.4-54.6
	c65.8-9.8,135.1-12.6,186.7-13.1c20.1,42.4,69.9,129.5,156.4,171.2c56.2,27.2,119.2,41,169.3,48.2l-6.6,33.1l99.8,14.8v-40.4h-0.1
	l0,0c0,0-83.8-34.8-135.4-86.3c-35.1-35.1-43.5-88.3-45.3-118.8h0.3c84.4,16.1,158.2,27.6,334.6,95.2c32.7,12.5,63,26.2,90.7,40
	l-5.2,3l79.5,64.1l95,78.6v-40.4l-0.3-0.3c-1.4-1.7-109.6-135.7-291.3-225.4c-150.2-74.1-273.5-110.7-444.4-119
	c-186.9-8.9-324.5,15.1-324.5,15.1s3.8-83,144.9-149.1c122.6-57.5,315.5-67.2,536.9-10.7c312.7,79.7,419.5,215.7,554,356.1
	c85.4,89.1,163.8,214.4,213.3,301.1l-8.4-3.7l25.6,66.2l36.7,78.3v-40.6L1918.6,1550.5L1918.6,1550.5z"/>
<linearGradient id="SVGID_2_" gradientUnits="userSpaceOnUse" x1="1020.5546" y1="2372.2495" x2="1020.5546" y2="1422.175" gradientTransform="matrix(1 0 0 -1 0 3016)">
	<stop  offset="0" style="stop-color:#B460FF"/>
	<stop  offset="1" style="stop-color:#C022FF"/>
</linearGradient>
<path class="st3" d="M1812.5,1334c-82.7-152.7-153.9-261.9-272.6-372.7c-38.2-35.6-74.2-67.5-111.9-96.1l0,0c0,0-0.3-0.2-0.8-0.6
	c-0.6-0.5-1.4-1.1-2-1.6c-14-10.8-73.2-60.6-52.1-115.7c23.1-60.4,153.3-87.5,153.3-87.5s-63.8-21.7-175.5-14.5
	c-104.8,6.8-198.8,68-216.5,76.6c-56.4-16.2-120.8-30.4-196.1-43.2c-260.4-44.2-480.8,26.2-591.3,103
	C202,882.2,205.9,975.9,194,1022.9c-8.6,33.7-96,100.8-66.3,137.3c18.5,22.7,80.3-8.1,130-28.7c52.4-21.6,56.4-33.2,199.4-54.6
	c65.8-9.8,135.1-12.6,186.7-13.1c20.1,42.4,69.9,129.5,156.4,171.2c116.7,56.4,262.5,55.7,262.5,55.7s-83.8-34.8-135.4-86.3
	c-35.1-35.1-43.5-88.3-45.3-118.8h0.3c84.4,16.1,158.2,27.6,334.6,95.2c154.3,59.1,259.8,145.1,259.8,145.1
	s-108.4-135.2-291.4-225.4c-150.2-74.1-273.5-110.7-444.4-119c-186.6-9.1-324.2,14.9-324.2,14.9s3.8-83,144.9-149.1
	c122.6-57.5,315.5-67.2,536.9-10.7c312.7,79.7,419.5,215.7,554,356.1c143.2,149.4,267.1,401,267.1,401S1881.3,1460.9,1812.5,1334
	L1812.5,1334z"/>
<g>
	<path class="st1" d="M1761.2,1144.9c-66,345.1-369.5,605.9-733.8,605.9c-2,0-3.9,0-6,0l-0.1,41
		C1399.6,1791.4,1712.1,1509.9,1761.2,1144.9z"/>
	<path class="st1" d="M1027.4,106.9l-0.1,41c492.2,3.5,890.2,403.6,890.2,896.6c0,42.1-2.9,83.6-8.5,124.1
		c9.9-53.4,15.2-108.7,15.2-165C1924,508.4,1522.5,106.9,1027.4,106.9z"/>
	
		<linearGradient id="SVGID_3_" gradientUnits="userSpaceOnUse" x1="117.3802" y1="1003.4371" x2="1917.323" y2="1003.4371" gradientTransform="matrix(1 0 0 -1 0 2048)">
		<stop  offset="0" style="stop-color:#B460FF"/>
		<stop  offset="1" style="stop-color:#C022FF"/>
	</linearGradient>
	<path class="st4" d="M1027.2,147.9l-0.6,149.4c409.9,3.2,741.2,336.5,741.2,747.2c0,34.1-2.3,67.5-6.7,100.4
		c-49,365-361.5,646.5-739.9,646.8l-0.6,149.4c453.1,0,827.7-336.1,888.1-772.5c5.6-40.5,8.5-82,8.5-124.1
		C1917.3,551.4,1519.4,151.4,1027.2,147.9z"/>
</g>
</svg>
